<?xml version="1.0" standalone="no"?>
<!DOCTYPE svg PUBLIC "-//W3C//DTD SVG 20010904//EN"
 "http://www.w3.org/TR/2001/REC-SVG-20010904/DTD/svg10.dtd">
<svg version="1.0" xmlns="http://www.w3.org/2000/svg"
 width="568.000000pt" height="707.000000pt" viewBox="0 0 568.000000 707.000000"
 preserveAspectRatio="xMidYMid meet">
<metadata>
Created by potrace 1.16, written by Peter Selinger 2001-2019
</metadata>
<g transform="translate(0.000000,707.000000) scale(0.100000,-0.100000)"
fill="#000000" stroke="none">
<path d="M4444 7031 c7 -11 -18 -21 -55 -21 -16 0 -38 -9 -49 -20 -11 -11 -25
-20 -30 -20 -6 0 -13 -7 -16 -15 -4 -8 -12 -15 -19 -15 -8 0 -16 -8 -18 -17
-4 -17 -5 -17 -6 0 -1 10 -9 17 -20 17 -10 0 -24 7 -31 15 -18 22 -287 22
-316 0 -13 -10 -45 -14 -101 -15 -67 0 -83 -3 -83 -15 0 -11 -13 -15 -54 -15
-56 0 -116 -16 -116 -31 0 -5 -7 -9 -16 -9 -9 0 -18 -9 -21 -20 -3 -11 -11
-20 -18 -20 -16 0 -25 -32 -25 -92 0 -36 -4 -48 -15 -48 -12 0 -15 -16 -15
-82 -1 -57 -5 -89 -15 -102 -22 -29 -21 -214 0 -222 8 -4 15 -11 15 -18 0 -13
44 -56 58 -56 5 0 12 -6 15 -14 3 -8 19 -17 36 -21 17 -4 31 -13 31 -21 0 -8
9 -14 19 -14 10 0 21 -6 24 -14 3 -8 16 -16 29 -18 12 -2 24 -11 26 -20 3 -14
-3 -18 -28 -18 -23 0 -33 -5 -37 -20 -4 -15 -14 -20 -39 -20 -21 0 -34 -5 -34
-13 0 -7 -13 -18 -30 -24 -18 -7 -32 -21 -36 -37 -3 -14 -12 -26 -20 -26 -8 0
-14 -7 -14 -15 0 -8 -9 -19 -20 -25 -13 -7 -20 -21 -20 -40 0 -20 -5 -30 -15
-30 -13 0 -15 -26 -15 -170 0 -144 2 -170 15 -170 8 0 15 -9 15 -20 0 -11 -7
-20 -15 -20 -10 0 -15 7 -13 18 2 13 -5 18 -36 20 -22 2 -49 10 -60 18 -15 10
-50 14 -123 14 -81 0 -103 3 -103 14 0 19 -46 26 -179 26 -138 0 -191 -7 -191
-26 0 -11 -22 -14 -103 -14 -75 0 -108 -4 -123 -15 -10 -8 -34 -15 -52 -15
-25 0 -35 -5 -39 -20 -5 -17 -14 -20 -64 -20 -32 0 -61 -5 -64 -10 -4 -6 -22
-17 -41 -25 -19 -8 -34 -19 -34 -24 0 -6 -11 -11 -25 -11 -16 0 -25 -6 -25
-15 0 -10 -10 -15 -34 -15 -44 0 -66 -9 -66 -26 0 -8 -7 -14 -15 -14 -8 0 -15
-7 -15 -15 0 -8 -9 -15 -20 -15 -11 0 -25 -9 -32 -20 -7 -11 -23 -20 -35 -20
-14 0 -23 -6 -23 -15 0 -8 -7 -15 -15 -15 -8 0 -15 -9 -15 -20 0 -13 -7 -20
-20 -20 -11 0 -20 -7 -20 -15 0 -8 -7 -15 -15 -15 -8 0 -15 -9 -15 -20 0 -13
-7 -20 -20 -20 -11 0 -20 -7 -20 -15 0 -8 -7 -15 -15 -15 -8 0 -15 -7 -15 -15
0 -8 -9 -24 -20 -35 -11 -11 -20 -29 -20 -40 0 -11 -7 -20 -15 -20 -8 0 -15
-7 -15 -15 0 -8 -6 -15 -14 -15 -15 0 -26 -21 -26 -51 0 -10 -7 -19 -15 -19
-10 0 -15 -11 -15 -35 0 -28 -4 -35 -20 -35 -16 0 -20 -7 -20 -35 0 -24 -5
-35 -15 -35 -10 0 -15 -10 -15 -31 0 -18 -7 -37 -17 -44 -11 -8 -18 -32 -21
-74 -3 -43 -8 -61 -18 -61 -12 0 -14 -53 -14 -310 0 -269 2 -310 15 -310 12 0
15 -13 15 -55 0 -42 5 -60 20 -75 11 -11 20 -27 20 -35 0 -8 7 -15 15 -15 9 0
15 -6 14 -12 -6 -47 2 -80 21 -85 11 -3 20 -14 20 -24 0 -11 7 -19 15 -19 10
0 15 -10 15 -31 0 -22 5 -32 20 -36 11 -3 20 -12 20 -19 0 -8 7 -14 15 -14 8
0 15 -9 15 -20 0 -13 7 -20 20 -20 16 0 20 -7 20 -30 0 -20 5 -30 15 -30 8 0
15 -7 15 -16 0 -9 9 -18 20 -21 11 -3 20 -12 20 -19 0 -8 7 -17 15 -20 8 -4
15 -12 15 -20 0 -8 9 -14 20 -14 13 0 20 -7 20 -18 0 -20 24 -45 53 -55 9 -4
17 -15 17 -26 0 -11 5 -23 12 -27 7 -5 8 -3 3 6 -5 9 -4 11 3 6 7 -4 12 -18
12 -32 0 -14 6 -24 14 -24 8 0 18 -9 21 -20 3 -11 13 -20 21 -20 8 0 14 -8 14
-18 0 -11 9 -27 20 -37 11 -10 20 -24 20 -32 0 -7 7 -13 15 -13 9 0 15 -9 15
-24 0 -14 6 -31 13 -38 8 -7 17 -30 21 -50 3 -20 13 -41 21 -48 21 -17 22
-160 1 -160 -15 0 -26 -21 -26 -51 0 -10 -5 -19 -10 -19 -6 0 -13 -7 -17 -16
-8 -20 -81 -94 -94 -94 -5 0 -9 -7 -9 -15 0 -8 -9 -15 -20 -15 -11 0 -20 -7
-20 -15 0 -8 -7 -15 -15 -15 -8 0 -15 -9 -15 -20 0 -16 -7 -20 -35 -20 -24 0
-35 -5 -35 -15 0 -8 -9 -15 -20 -15 -11 0 -29 -9 -40 -20 -11 -11 -27 -20 -35
-20 -8 0 -15 -7 -15 -15 0 -10 -10 -15 -34 -15 -19 0 -39 -7 -47 -17 -12 -14
-12 -16 0 -8 10 5 12 4 7 -3 -4 -7 -35 -12 -75 -12 -49 0 -72 -4 -81 -15 -18
-22 -324 -22 -346 0 -10 10 -35 15 -70 15 -47 0 -54 2 -54 20 0 16 -7 20 -35
20 -24 0 -35 5 -35 15 0 8 -7 15 -15 15 -8 0 -15 7 -15 16 0 9 -9 18 -20 21
-11 3 -20 12 -20 19 0 8 -7 14 -15 14 -8 0 -15 9 -15 20 0 11 -9 29 -20 40
-18 18 -20 33 -20 175 0 142 2 157 20 175 11 11 20 33 20 49 0 16 6 31 15 35
11 4 15 20 15 56 0 43 3 50 20 50 11 0 20 7 20 15 0 9 7 18 15 21 8 4 15 18
15 34 0 19 6 29 20 33 15 4 20 14 20 36 0 21 5 31 15 31 8 0 15 7 15 15 0 8 9
24 20 35 14 14 20 33 20 65 0 31 5 47 15 51 12 5 15 25 15 90 0 66 -3 86 -15
90 -10 4 -15 21 -15 53 0 35 -5 49 -20 59 -23 14 -26 32 -6 32 8 0 16 7 20 15
3 8 17 15 30 15 14 0 31 8 38 18 15 20 73 52 94 52 8 0 14 9 14 20 0 16 7 20
35 20 24 0 35 5 35 15 0 8 9 15 19 15 48 0 51 15 51 276 0 230 -1 244 -18 244
-11 0 -27 9 -37 20 -10 11 -26 20 -35 20 -10 0 -20 7 -24 15 -3 10 -19 15 -46
15 -27 0 -47 7 -60 20 -12 12 -33 20 -54 20 -21 0 -36 6 -40 15 -4 11 -20 15
-56 15 -36 0 -50 4 -50 14 0 16 -59 30 -84 20 -9 -3 -16 -12 -16 -20 0 -10
-14 -14 -53 -14 -31 0 -61 -6 -73 -15 -10 -8 -34 -15 -51 -15 -26 0 -33 -4
-33 -20 0 -18 -7 -20 -65 -20 -49 0 -67 -4 -71 -15 -4 -9 -19 -15 -40 -15 -21
0 -42 -8 -54 -20 -11 -11 -33 -20 -50 -20 -20 0 -30 -5 -30 -15 0 -10 -11 -15
-35 -15 -37 0 -75 -28 -75 -55 0 -8 -7 -15 -15 -15 -8 0 -15 -9 -15 -20 0 -13
-7 -20 -20 -20 -11 0 -20 -7 -20 -15 0 -8 -7 -15 -15 -15 -8 0 -15 -8 -15 -19
0 -10 -9 -21 -20 -24 -15 -4 -20 -14 -20 -36 0 -21 -5 -31 -15 -31 -22 0 -22
-298 0 -306 9 -4 15 -19 15 -36 0 -21 6 -31 20 -35 11 -3 20 -12 20 -19 0 -8
6 -14 14 -14 7 0 16 -9 19 -20 3 -11 12 -20 21 -20 9 0 16 -7 16 -15 0 -11 12
-15 49 -15 40 0 50 -3 54 -20 4 -15 14 -20 36 -20 19 0 34 -6 37 -15 4 -10 21
-15 54 -15 39 0 49 -4 53 -20 4 -15 14 -20 36 -20 21 0 31 -5 31 -15 0 -8 5
-15 10 -15 6 0 19 -9 30 -20 11 -11 29 -20 40 -20 16 0 20 -7 20 -31 0 -22 5
-32 20 -36 13 -3 20 -14 20 -28 0 -18 4 -22 20 -18 27 7 37 64 16 95 -9 12
-16 33 -16 46 0 59 -197 202 -278 202 -21 0 -57 9 -81 20 -24 11 -50 20 -58
20 -29 0 -96 64 -119 114 -44 95 -26 282 34 347 12 12 27 19 34 16 16 -6 38
-149 38 -243 0 -71 19 -110 75 -154 60 -48 141 -100 154 -100 6 0 11 -4 11 -9
0 -5 10 -13 22 -17 23 -7 78 -43 89 -57 20 -28 178 -26 187 2 2 6 11 11 21 11
9 0 34 9 56 20 46 24 85 26 85 5 0 -7 7 -18 17 -23 14 -8 16 -29 16 -139 1
-119 -1 -132 -21 -158 -12 -15 -22 -32 -22 -37 0 -9 -39 -68 -51 -78 -4 -3
-16 -27 -28 -55 -12 -27 -26 -57 -31 -65 -44 -74 -118 -243 -129 -296 -5 -27
-14 -67 -20 -89 -25 -94 -1 -226 57 -320 102 -164 344 -264 607 -252 343 17
666 208 808 477 29 54 39 148 27 252 -6 49 -17 100 -25 111 -8 12 -15 28 -15
37 0 8 -16 39 -35 69 -19 29 -35 55 -35 58 0 5 -95 132 -138 183 -72 86 -215
274 -235 308 -11 20 -24 39 -27 42 -12 10 -90 169 -90 183 0 8 -7 20 -15 27
-8 7 -15 22 -15 34 -1 11 -7 39 -15 61 -8 22 -22 94 -30 161 -14 108 -14 134
0 254 9 73 18 137 22 143 3 5 11 32 18 60 16 62 41 135 56 160 5 10 23 44 40
75 16 31 39 71 49 87 11 17 24 40 29 51 5 12 13 23 18 25 4 2 26 26 48 53 54
68 91 105 155 157 30 24 57 47 58 52 2 4 8 7 13 7 5 0 35 18 66 40 32 22 63
40 69 40 6 0 17 7 24 15 7 8 19 15 27 15 8 0 33 9 56 19 41 19 92 36 195 66
53 16 177 31 332 42 87 5 416 -22 435 -36 5 -5 35 -13 66 -19 99 -19 332 -119
427 -183 24 -16 45 -29 47 -29 10 0 116 -78 171 -125 210 -181 337 -370 371
-555 7 -41 18 -95 23 -120 14 -72 12 -254 -4 -302 -8 -24 -19 -65 -25 -93 -20
-105 -87 -249 -175 -380 -96 -141 -227 -267 -496 -473 -173 -133 -391 -431
-362 -496 l9 -21 12 22 c6 13 45 58 86 100 41 43 75 84 75 91 0 6 5 12 11 12
6 0 25 15 42 33 42 43 122 107 134 107 5 0 24 16 43 35 19 19 39 35 44 35 6 0
35 23 64 50 29 28 57 50 62 50 11 0 43 28 133 112 39 38 73 68 76 68 3 1 15
12 26 26 11 14 44 51 72 82 29 31 53 62 53 69 0 6 7 18 14 26 14 14 61 93 88
147 7 14 18 31 25 38 7 7 13 19 13 26 0 6 9 29 20 51 11 22 20 49 20 60 0 12
6 27 12 33 14 14 33 103 49 238 21 168 -18 428 -81 534 -5 8 -23 42 -40 75
-75 146 -265 359 -403 454 -12 8 -24 18 -27 21 -6 7 -110 74 -130 84 -8 4 -33
18 -55 31 -36 21 -118 63 -170 87 -51 23 -64 43 -80 118 -19 92 -19 127 -1
210 18 86 47 141 105 198 71 70 124 103 195 121 34 9 46 7 89 -14 27 -14 61
-34 74 -45 14 -11 32 -20 39 -20 24 0 16 -46 -10 -58 -51 -23 -136 -169 -136
-233 0 -49 16 -89 35 -89 10 0 15 10 15 29 0 16 6 31 14 34 8 3 18 26 21 51 4
24 13 47 21 50 8 3 14 12 14 21 0 8 7 15 15 15 8 0 15 6 15 14 0 7 9 16 20 19
11 3 20 12 20 21 0 9 6 16 14 16 8 0 16 7 20 15 3 9 18 14 38 14 18 -1 79 -1
136 0 95 1 102 2 102 21 0 18 7 20 84 20 65 0 85 3 90 15 4 10 20 15 52 15 37
0 47 4 51 20 5 17 14 20 59 20 41 0 54 4 54 15 0 11 12 15 46 15 37 0 47 4 51
20 3 11 11 20 18 20 16 0 25 23 25 65 0 20 6 35 15 39 8 3 15 12 15 21 0 8 7
15 15 15 8 0 15 6 15 13 0 7 9 18 20 25 11 7 20 23 20 36 0 15 7 26 20 29 15
4 20 14 20 36 0 21 5 31 15 31 13 0 15 24 15 155 0 131 -2 155 -15 155 -10 0
-15 10 -15 31 0 22 -5 32 -20 36 -15 4 -20 14 -20 39 0 22 -5 34 -14 34 -7 0
-16 9 -19 20 -3 11 -12 20 -21 20 -11 0 -16 9 -16 30 0 19 -5 30 -14 30 -7 0
-16 9 -19 20 -3 11 -12 20 -21 20 -9 0 -16 7 -16 15 0 8 -7 15 -15 15 -8 0
-19 9 -25 20 -8 15 -21 20 -55 20 -33 0 -45 4 -45 15 0 12 -20 15 -116 15 -65
0 -113 -4 -110 -9z m258 -115 c67 -44 104 -87 152 -179 59 -115 82 -236 57
-299 -5 -13 -12 -35 -15 -50 -12 -56 -24 -25 -28 72 -3 92 -6 102 -28 118 -21
16 -228 129 -310 170 -19 9 -37 20 -40 24 -3 4 -17 12 -30 17 -14 6 -32 15
-40 20 -8 6 -36 22 -62 36 -47 26 -47 27 -32 51 9 13 22 24 29 24 6 0 20 9 31
21 18 20 27 21 139 17 120 -4 120 -4 177 -42z m-484 -73 c42 -21 95 -50 118
-65 22 -15 52 -32 65 -38 13 -6 51 -26 84 -46 33 -19 74 -42 90 -50 48 -23
139 -75 149 -84 4 -5 -14 -12 -40 -15 -27 -4 -74 -14 -104 -21 -30 -8 -70 -14
-90 -14 -19 0 -59 -7 -88 -14 -30 -8 -93 -18 -140 -21 -90 -7 -110 -3 -167 35
-16 11 -43 27 -60 35 -16 9 -43 24 -60 35 -16 11 -43 26 -60 35 -34 18 -52 28
-115 70 -55 36 -63 42 -128 84 -88 57 -59 77 118 81 41 1 100 8 130 15 30 7
92 13 138 14 77 1 89 -2 160 -36z m-618 -114 c8 -12 80 -59 91 -59 5 0 22 -8
37 -19 69 -48 140 -91 151 -91 6 0 11 -4 11 -9 0 -5 10 -13 22 -17 12 -3 43
-21 68 -38 77 -52 84 -56 113 -69 26 -11 27 -14 27 -82 0 -39 -5 -76 -11 -82
-6 -6 -14 -68 -19 -138 -5 -70 -12 -130 -15 -133 -7 -8 -97 39 -108 55 -4 6
-21 14 -37 18 -17 4 -30 10 -30 15 0 4 -12 13 -27 19 -16 6 -41 20 -58 31 -16
11 -43 27 -60 35 -16 9 -43 25 -60 35 -16 11 -43 27 -60 36 -73 38 -85 46 -85
55 0 5 -7 9 -15 9 -27 0 -32 41 -23 190 9 174 32 263 63 253 11 -3 22 -9 25
-14z m-2691 -2380 c36 -6 76 -17 88 -25 12 -8 28 -14 34 -14 7 0 30 -8 53 -19
23 -10 63 -27 90 -37 55 -21 72 -44 33 -44 -13 0 -30 -6 -36 -14 -7 -8 -27
-18 -44 -22 -18 -3 -59 -19 -93 -35 -34 -16 -66 -29 -73 -29 -7 0 -29 -8 -49
-19 -87 -44 -104 -51 -115 -51 -7 0 -30 -9 -51 -21 -36 -19 -39 -19 -64 -3
-14 9 -91 51 -171 92 -81 41 -148 76 -150 78 -14 13 41 43 111 63 46 12 97 29
113 37 17 7 46 17 65 20 19 4 44 11 55 17 17 9 103 33 129 36 5 1 39 -4 75
-10z m351 -331 l0 -143 -55 -37 c-31 -21 -60 -38 -64 -38 -10 0 -90 -42 -136
-71 -16 -10 -41 -24 -55 -30 -14 -6 -32 -15 -40 -20 -8 -5 -33 -17 -55 -26
-22 -9 -59 -27 -82 -40 l-43 -22 0 179 c0 146 3 180 14 180 7 0 19 6 25 14 7
8 30 17 52 21 22 4 43 13 46 21 3 8 16 14 29 14 13 0 41 9 61 20 21 11 43 20
49 20 6 0 17 7 24 15 7 8 24 15 37 15 14 0 36 9 50 20 14 11 35 20 47 20 12 0
31 7 42 15 10 8 27 15 37 15 15 0 17 -13 17 -142z"/>
<path d="M3898 5463 c-3 -16 67 -134 85 -141 4 -2 7 -10 7 -17 0 -8 6 -18 13
-22 6 -4 39 -42 71 -83 33 -41 67 -82 75 -91 9 -9 39 -42 66 -74 28 -33 68
-80 90 -105 86 -100 105 -124 125 -164 12 -22 39 -68 60 -101 21 -33 51 -85
65 -115 14 -30 32 -67 40 -82 8 -14 15 -37 15 -50 0 -13 6 -33 14 -44 8 -11
17 -38 21 -60 4 -21 13 -60 21 -86 32 -99 5 -438 -41 -520 -8 -14 -15 -37 -15
-51 0 -13 -6 -30 -14 -36 -8 -7 -18 -26 -21 -42 -4 -16 -17 -48 -31 -71 -13
-24 -29 -55 -35 -70 -6 -16 -15 -28 -19 -28 -4 0 -13 -12 -19 -27 -13 -34
-125 -191 -156 -218 -6 -5 -37 -43 -69 -84 -33 -40 -119 -134 -193 -209 -73
-74 -146 -151 -162 -171 -16 -20 -93 -100 -170 -178 -118 -118 -149 -144 -184
-153 -23 -6 -55 -16 -72 -22 -16 -6 -44 -11 -61 -12 -25 -1 -42 -14 -87 -66
-32 -36 -57 -73 -57 -83 0 -10 -7 -32 -16 -48 -16 -31 -11 -89 7 -89 5 0 9 -9
9 -19 0 -30 11 -51 26 -51 8 0 14 -7 14 -15 0 -8 9 -15 20 -15 25 0 25 12 0
35 -11 10 -25 36 -31 58 -22 83 31 178 125 226 64 31 215 30 321 -4 42 -13 82
-28 88 -33 7 -5 23 -13 35 -17 27 -8 134 -69 172 -98 34 -25 99 -87 135 -128
33 -38 105 -174 105 -199 0 -9 6 -22 13 -28 8 -9 13 -61 15 -166 3 -126 1
-159 -12 -184 -9 -17 -16 -37 -16 -45 0 -14 -34 -92 -66 -148 -20 -37 -133
-149 -151 -149 -7 0 -16 -6 -19 -14 -3 -7 -30 -26 -60 -41 -30 -15 -57 -32
-60 -36 -3 -5 -14 -9 -24 -9 -11 0 -36 -8 -55 -17 -35 -17 -38 -17 -67 0 -16
9 -34 17 -39 17 -5 0 -55 22 -111 49 -57 28 -116 53 -132 57 -16 4 -41 13 -55
20 -34 18 -149 18 -183 0 -14 -8 -46 -17 -70 -21 -24 -4 -50 -13 -58 -20 -8
-7 -33 -16 -55 -20 -22 -4 -45 -11 -52 -17 -30 -24 -179 102 -260 219 -21 30
-52 76 -70 101 -45 65 -113 207 -113 235 0 13 -7 46 -15 73 -18 59 -21 308 -4
351 6 15 14 48 19 73 14 78 56 178 78 187 6 3 12 12 12 20 0 18 -38 8 -61 -16
-8 -9 -33 -25 -54 -36 -109 -57 -182 -191 -177 -327 3 -72 53 -323 72 -358 5
-10 12 -44 16 -76 3 -33 12 -82 20 -109 20 -72 21 -253 1 -296 -8 -19 -19 -45
-22 -58 -16 -53 -123 -156 -208 -199 -110 -56 -189 -75 -312 -74 -112 1 -264
29 -309 57 -12 7 -36 15 -55 19 -30 5 -141 53 -181 77 -8 5 -26 15 -40 21 -14
7 -41 25 -61 40 -20 15 -42 28 -47 28 -6 0 -17 6 -24 13 -7 7 -46 33 -85 56
-40 24 -73 47 -73 52 0 5 -9 9 -20 9 -11 0 -20 7 -20 15 0 11 -11 15 -37 15
-35 0 -36 0 -18 -20 10 -11 24 -20 32 -20 7 0 13 -7 13 -16 0 -9 9 -18 20 -21
11 -3 20 -12 20 -19 0 -8 7 -14 15 -14 8 0 15 -6 15 -14 0 -8 9 -18 20 -21 11
-3 20 -13 20 -21 0 -8 7 -14 15 -14 9 0 18 -7 21 -15 4 -8 12 -15 19 -15 7 0
15 -9 18 -20 4 -15 14 -20 36 -20 21 0 31 -5 31 -15 0 -8 6 -15 14 -15 7 0 16
-9 19 -20 4 -15 14 -20 36 -20 21 0 31 -5 31 -15 0 -8 8 -15 18 -15 9 0 23 -9
30 -20 7 -11 23 -20 37 -20 16 0 25 -6 25 -15 0 -10 11 -15 35 -15 28 0 35 -4
35 -20 0 -16 7 -20 34 -20 18 0 39 -7 46 -15 8 -10 31 -15 71 -15 52 0 59 -2
59 -20 0 -19 7 -20 195 -20 131 0 195 3 195 11 0 5 5 7 12 3 8 -5 9 -2 5 9 -5
14 0 17 32 17 22 0 44 6 51 15 7 8 23 15 36 15 17 0 24 6 24 20 0 16 7 20 35
20 24 0 35 5 35 15 0 8 9 15 20 15 13 0 20 7 20 20 0 16 7 20 31 20 17 0 28 4
24 10 -3 6 5 14 19 20 20 7 26 17 26 40 0 23 4 30 20 30 13 0 20 7 20 20 0 11
7 20 15 20 10 0 15 11 15 35 0 23 5 35 14 35 21 0 26 23 26 116 0 68 3 84 15
84 8 0 15 -7 15 -15 0 -8 9 -15 20 -15 11 0 20 -7 20 -15 0 -8 7 -15 15 -15 8
0 15 -7 15 -16 0 -9 9 -18 20 -21 11 -3 20 -9 20 -12 0 -9 78 -61 90 -61 7 0
20 -23 20 -36 0 -2 -9 -4 -20 -4 -16 0 -20 -7 -20 -35 0 -24 -5 -35 -15 -35
-19 0 -29 -57 -21 -115 5 -29 12 -45 22 -45 11 0 14 -16 14 -70 0 -54 4 -72
15 -76 10 -4 15 -20 15 -51 0 -36 4 -46 20 -50 11 -3 20 -10 20 -15 0 -21 46
-58 73 -58 20 0 27 -5 27 -20 0 -13 7 -20 20 -20 11 0 20 -7 20 -15 0 -8 5
-15 10 -15 5 0 19 -9 30 -20 11 -11 29 -20 40 -20 11 0 20 -7 20 -15 0 -10 11
-15 35 -15 28 0 35 -4 35 -20 0 -11 7 -20 15 -20 9 0 18 -7 21 -15 4 -8 18
-15 34 -15 19 0 29 -6 33 -20 3 -11 12 -20 21 -20 9 0 16 -7 16 -15 0 -10 11
-15 35 -15 28 0 35 -4 35 -20 0 -11 7 -20 15 -20 9 0 18 -7 21 -15 4 -8 14
-15 24 -15 11 0 22 -4 25 -10 9 -15 104 -60 126 -60 11 0 22 6 25 14 3 8 21
17 40 20 20 4 34 13 34 21 0 8 9 15 20 15 11 0 20 7 20 15 0 10 10 15 31 15
22 0 32 5 36 20 4 14 14 20 34 20 19 0 29 5 29 15 0 8 9 15 20 15 13 0 20 7
20 20 0 16 7 20 34 20 18 0 39 7 46 15 7 8 21 15 32 15 11 0 22 9 25 20 3 11
12 20 19 20 8 0 17 7 20 15 4 9 19 15 35 15 l29 0 0 104 c0 95 2 104 20 109
19 5 20 14 20 121 0 108 -1 116 -19 116 -30 0 -51 11 -51 26 0 8 -9 14 -20 14
-11 0 -20 7 -20 15 0 11 -12 15 -50 15 -43 0 -50 3 -50 20 0 13 -7 20 -19 20
-10 0 -21 6 -24 14 -3 8 -18 16 -34 19 -27 4 -27 4 5 6 21 0 32 6 32 16 0 8 9
15 20 15 11 0 20 7 20 15 0 8 9 15 19 15 30 0 51 11 51 26 0 8 9 14 20 14 25
0 120 95 120 120 0 11 7 20 15 20 8 0 15 6 15 14 0 7 9 16 20 19 11 3 20 13
20 22 0 9 7 23 15 31 8 9 15 24 15 34 0 10 9 20 20 23 16 4 20 14 20 51 l0 46
104 0 c113 0 136 4 136 26 0 11 18 14 80 14 58 0 81 4 87 14 5 9 28 16 63 18
44 2 54 6 52 19 -2 13 10 16 60 18 42 1 66 7 71 17 4 8 22 14 38 14 22 0 32 6
36 20 4 15 14 20 39 20 23 0 34 5 34 14 0 8 13 17 29 21 16 3 32 13 35 21 3 8
12 14 21 14 8 0 15 7 15 15 0 8 9 15 20 15 13 0 20 7 20 20 0 11 7 20 15 20 8
0 15 7 15 15 0 8 9 15 20 15 13 0 20 7 20 20 0 11 7 20 15 20 8 0 15 7 15 15
0 8 9 15 20 15 13 0 20 7 20 20 0 11 7 20 15 20 10 0 15 11 15 35 0 28 4 35
20 35 16 0 20 7 20 35 0 24 5 35 15 35 12 0 15 14 15 70 0 63 2 70 20 70 20 0
20 7 20 380 0 373 0 380 -20 380 -11 0 -20 7 -20 15 0 10 -11 15 -35 15 -20 0
-37 6 -43 16 -5 8 -27 18 -50 21 -26 4 -42 11 -42 19 0 8 -9 14 -20 14 -13 0
-20 7 -20 20 0 11 -7 20 -15 20 -8 0 -15 7 -15 15 0 8 -9 15 -20 15 -13 0 -20
7 -20 20 0 16 -7 20 -30 20 -18 0 -33 6 -36 15 -4 8 -10 15 -15 15 -5 0 -18 9
-29 20 -13 13 -33 20 -59 20 -25 0 -41 5 -45 15 -8 22 -367 22 -390 0 -8 -8
-27 -15 -43 -15 -43 0 -73 -11 -73 -26 0 -8 -9 -14 -20 -14 -11 0 -20 -7 -20
-15 0 -10 -10 -15 -31 -15 -22 0 -32 -5 -36 -20 -3 -11 -10 -20 -16 -20 -5 0
-15 -7 -22 -16 -9 -13 -10 -9 -7 20 3 27 9 36 23 36 10 0 19 7 19 15 0 8 7 15
15 15 8 0 15 9 15 20 0 13 7 20 20 20 11 0 20 6 20 14 0 8 7 16 15 20 8 3 15
12 15 21 0 8 6 15 14 15 15 0 26 21 26 51 0 10 7 19 15 19 8 0 15 9 15 20 0
11 7 20 15 20 9 0 18 12 21 29 4 17 12 32 20 35 8 3 14 18 14 35 0 20 6 30 20
34 11 3 20 13 20 22 0 9 7 23 15 31 8 9 15 31 15 49 0 21 6 37 17 43 11 7 18
28 21 68 2 33 10 62 17 66 7 4 13 35 14 75 1 42 8 74 17 84 21 23 20 204 -1
213 -11 4 -15 22 -15 76 0 56 -3 70 -15 70 -12 0 -15 14 -15 66 0 57 -3 67
-20 71 -17 4 -20 14 -20 54 0 35 -4 49 -14 49 -8 0 -17 15 -20 35 -4 21 -13
35 -21 35 -10 0 -15 11 -15 35 0 24 -5 35 -15 35 -8 0 -15 9 -15 20 0 13 -7
20 -20 20 -16 0 -20 7 -20 30 0 17 -6 33 -14 36 -8 3 -16 15 -19 26 -4 14 -11
19 -21 15 -11 -5 -16 0 -16 13 0 11 -7 20 -15 20 -10 0 -15 10 -15 31 0 22 -5
32 -20 36 -11 3 -20 12 -20 19 0 8 -7 14 -15 14 -8 0 -15 9 -15 20 0 13 -7 20
-20 20 -11 0 -20 7 -20 15 0 8 -7 15 -15 15 -8 0 -15 9 -15 20 0 13 -7 20 -20
20 -11 0 -20 7 -20 15 0 8 -7 15 -15 15 -8 0 -15 9 -15 20 0 13 -7 20 -20 20
-11 0 -20 7 -20 15 0 8 -6 15 -14 15 -7 0 -16 9 -19 20 -3 11 -12 20 -21 20
-9 0 -16 7 -16 15 0 8 -7 15 -15 15 -8 0 -15 7 -15 16 0 9 -9 18 -20 21 -11 3
-20 12 -20 19 0 8 -7 14 -15 14 -8 0 -15 9 -15 20 0 11 -7 20 -15 20 -9 0 -18
7 -21 15 -4 8 -12 15 -20 15 -8 0 -14 9 -14 20 0 11 -6 20 -14 20 -8 0 -16 7
-20 15 -3 8 -12 15 -21 15 -8 0 -15 9 -15 20 0 25 -37 27 -42 3z m1047 -2337
c227 -39 418 -227 491 -486 15 -53 18 -100 18 -260 0 -177 -3 -201 -23 -260
-43 -122 -89 -202 -159 -273 -101 -102 -210 -169 -387 -238 -33 -13 -64 -26
-70 -30 -5 -4 -28 -10 -50 -14 -22 -4 -49 -12 -60 -18 -45 -23 -304 -73 -315
-60 -4 4 -10 67 -13 140 -4 110 -2 133 10 137 8 3 52 6 98 6 105 0 282 41 357
82 135 74 225 162 282 275 16 32 36 72 45 88 13 24 16 63 15 195 l-1 165 -41
80 c-23 44 -59 98 -79 120 -77 83 -179 145 -238 145 -18 0 -37 5 -40 10 -14
22 -140 3 -175 -26 -8 -7 -33 -15 -55 -19 -22 -4 -60 -13 -85 -20 -25 -7 -62
-16 -82 -18 -31 -5 -38 -2 -44 15 -6 21 24 98 39 98 4 0 12 11 17 25 5 14 22
31 37 37 16 7 32 18 36 25 4 7 14 13 21 13 8 0 19 6 25 14 6 7 25 16 41 20 17
3 30 12 30 20 0 12 17 16 78 19 167 7 200 6 277 -7z m-582 -106 c-3 -11 -11
-20 -19 -20 -7 0 -16 -16 -20 -35 -3 -20 -12 -35 -20 -35 -8 0 -14 -6 -14 -14
0 -8 -6 -16 -14 -19 -8 -3 -16 -18 -18 -34 -2 -23 -9 -29 -36 -33 -18 -3 -31
-9 -30 -14 2 -5 -7 -12 -19 -17 -23 -8 -23 -9 -23 -249 0 -228 1 -240 19 -240
10 0 21 -9 24 -20 3 -13 14 -20 30 -20 14 0 27 -7 31 -15 3 -8 15 -15 26 -15
11 0 20 -5 20 -10 0 -6 12 -16 28 -23 15 -6 31 -17 35 -24 4 -7 27 -13 50 -13
31 0 45 -5 55 -20 8 -13 23 -20 42 -20 20 0 30 -5 30 -15 0 -10 10 -15 31 -15
19 0 37 -7 45 -17 10 -15 31 -19 113 -21 92 -4 101 -2 113 17 10 16 23 21 56
21 29 0 45 5 48 15 8 19 44 20 44 1 0 -7 -9 -16 -20 -19 -11 -3 -20 -12 -20
-21 0 -9 -7 -16 -15 -16 -8 0 -15 -6 -15 -14 0 -7 -9 -16 -20 -19 -11 -3 -20
-12 -20 -20 0 -8 -11 -18 -25 -21 -14 -4 -25 -11 -25 -16 0 -6 -11 -10 -25
-10 -18 0 -25 -5 -25 -20 0 -18 -7 -20 -55 -20 -39 0 -54 -4 -52 -12 1 -10
-36 -15 -143 -20 -120 -6 -147 -10 -157 -25 -12 -15 -13 -15 -13 5 0 12 -9 31
-20 42 -11 11 -20 27 -20 35 0 8 -7 15 -15 15 -10 0 -15 10 -15 31 0 22 -5 32
-20 36 -11 3 -20 12 -20 19 0 8 -7 14 -15 14 -8 0 -15 9 -15 20 0 13 -7 20
-20 20 -11 0 -20 7 -20 15 0 8 -7 15 -15 15 -8 0 -15 9 -15 20 0 13 -7 20 -20
20 -11 0 -20 7 -20 15 0 8 -7 15 -15 15 -8 0 -24 9 -35 20 -11 11 -27 20 -35
20 -8 0 -15 7 -15 15 0 10 -11 15 -35 15 -28 0 -35 4 -35 20 0 16 -7 20 -35
20 -24 0 -35 5 -35 15 0 11 -11 15 -41 15 -26 0 -50 7 -66 20 -16 12 -41 20
-64 20 -42 0 -55 23 -19 33 11 3 20 12 20 21 0 9 6 16 14 16 8 0 16 7 20 15 3
8 17 15 32 15 17 0 28 6 31 20 3 11 12 20 19 20 8 0 17 7 20 15 4 8 12 15 20
15 8 0 14 9 14 20 0 11 7 20 15 20 9 0 18 7 21 15 4 8 12 15 20 15 8 0 14 9
14 20 0 15 7 20 29 20 29 0 41 14 41 51 0 14 7 19 25 19 23 0 75 41 75 60 0 6
6 10 14 10 8 0 16 7 20 15 3 8 12 15 21 15 8 0 15 9 15 20 0 13 7 20 20 20 11
0 20 6 20 14 0 8 7 16 15 20 8 3 15 12 15 21 0 8 9 15 20 15 11 0 20 6 20 14
0 8 7 16 15 20 8 3 15 12 15 21 0 8 6 15 14 15 8 0 16 7 20 15 8 22 15 18 9
-5z m504 -160 c14 -11 31 -20 38 -20 22 0 125 -106 125 -128 0 -16 -10 -24
-42 -33 -24 -6 -47 -14 -53 -19 -5 -4 -26 -11 -45 -15 -19 -4 -46 -13 -60 -20
-14 -7 -48 -18 -75 -24 -61 -14 -71 -11 -237 63 -20 9 -43 16 -53 16 -9 0 -28
6 -43 14 -15 7 -43 16 -62 19 -20 3 -53 16 -75 28 l-40 24 55 13 c30 8 82 18
115 24 33 6 76 16 95 23 19 8 55 16 80 20 24 3 49 10 55 15 18 15 107 29 153
24 24 -2 55 -13 69 -24z m219 -255 c13 -21 17 -52 17 -162 0 -131 -1 -137 -24
-154 -13 -10 -33 -19 -44 -19 -11 0 -33 -9 -50 -20 -16 -11 -40 -20 -52 -20
-12 0 -28 -7 -37 -15 -8 -8 -23 -15 -33 -15 -10 0 -35 -9 -56 -20 l-37 -20 0
182 c0 101 4 189 8 196 5 7 33 16 62 21 30 5 56 14 58 20 2 6 11 11 20 11 10
1 35 9 57 20 56 27 91 26 111 -5z m-1648 -1568 c50 -29 241 -124 327 -162 88
-40 125 -55 133 -55 5 0 15 -7 22 -15 7 -8 20 -15 29 -15 10 0 32 -11 50 -24
l32 -24 -58 -26 c-32 -15 -65 -31 -73 -36 -8 -5 -40 -21 -70 -37 -30 -15 -81
-42 -112 -60 -31 -18 -64 -33 -73 -33 -9 0 -42 15 -73 33 -31 18 -113 61 -182
96 -69 34 -132 66 -140 71 -8 4 -53 27 -100 50 -47 24 -103 53 -125 66 -22 13
-50 29 -62 35 -14 8 -23 22 -23 36 0 19 5 23 33 23 17 1 50 9 72 20 22 11 49
20 60 20 11 0 31 7 45 15 14 8 34 14 45 15 11 0 36 9 55 19 56 31 121 27 188
-12z m-508 -182 c14 -4 45 -23 69 -41 24 -19 50 -34 57 -34 8 0 14 -4 14 -9 0
-5 26 -22 58 -37 31 -16 63 -35 70 -41 7 -7 22 -13 32 -13 10 0 22 -5 26 -11
3 -6 21 -17 38 -25 17 -8 40 -19 51 -26 11 -6 27 -15 35 -20 8 -4 26 -13 40
-19 14 -6 32 -15 40 -20 8 -5 26 -14 40 -20 13 -5 27 -13 30 -17 3 -4 19 -14
35 -22 l30 -16 3 -168 c1 -92 -1 -166 -5 -164 -5 2 -21 10 -38 18 -16 8 -34
20 -38 27 -4 7 -13 13 -20 14 -7 0 -39 20 -72 45 -33 24 -71 50 -85 57 -14 6
-31 17 -38 24 -7 7 -17 13 -22 13 -4 0 -49 28 -100 63 -51 34 -100 67 -109 72
-52 32 -77 51 -84 62 -4 7 -13 13 -18 13 -28 0 -48 46 -49 110 0 36 -7 92 -15
125 -16 67 -19 96 -7 79 4 -6 18 -15 32 -19z"/>
<path d="M2464 3534 c-13 -6 -2 -100 15 -117 6 -6 30 -12 52 -12 40 0 69 21
82 58 2 8 9 7 21 -6 10 -9 21 -17 26 -17 4 0 11 -8 14 -17 3 -10 13 -29 22
-43 23 -38 14 -174 -14 -220 -41 -67 -145 -129 -219 -130 -49 0 -134 35 -174
72 l-41 39 -6 110 c-6 134 -22 125 -22 -13 0 -80 4 -103 21 -132 23 -40 73
-80 109 -89 14 -3 44 -11 67 -18 36 -11 52 -10 119 7 71 17 83 24 140 80 54
54 63 68 70 110 6 44 8 46 21 28 9 -13 13 -42 12 -91 -1 -54 2 -79 16 -100 27
-44 67 -83 84 -83 8 0 23 -8 34 -17 32 -29 177 -25 242 6 98 49 159 137 172
246 5 48 -32 140 -74 182 -64 64 -94 78 -163 77 -68 -1 -163 -21 -108 -23 23
-1 28 -7 34 -36 4 -25 15 -40 35 -50 42 -22 68 -18 98 14 35 37 57 32 91 -17
22 -33 25 -47 25 -132 0 -86 -3 -99 -26 -132 -52 -75 -125 -113 -219 -113 -84
0 -146 29 -189 86 -29 40 -31 48 -31 129 0 76 -3 90 -25 120 -14 19 -28 52
-32 74 -9 56 -92 136 -165 159 -53 16 -91 20 -114 11z"/>
<path d="M637 3203 c-4 -3 -7 -26 -7 -50 0 -32 -4 -43 -15 -43 -8 0 -15 -8
-15 -19 0 -10 -9 -21 -20 -24 -15 -4 -20 -14 -20 -36 0 -21 -5 -31 -15 -31 -8
0 -15 -7 -15 -15 0 -8 -9 -24 -20 -35 -11 -11 -20 -27 -20 -35 0 -8 -7 -15
-15 -15 -10 0 -15 -11 -15 -35 0 -28 -4 -35 -20 -35 -16 0 -20 -7 -20 -34 0
-21 -6 -36 -15 -40 -8 -3 -15 -18 -15 -33 0 -17 -8 -33 -20 -41 -16 -10 -20
-23 -20 -72 0 -47 -3 -60 -15 -60 -23 0 -23 -508 0 -516 9 -4 15 -19 15 -36 0
-21 6 -31 20 -35 11 -3 20 -12 20 -19 0 -8 7 -14 15 -14 10 0 15 -11 15 -35 0
-28 4 -35 20 -35 11 0 20 -6 20 -12 0 -22 47 -58 74 -58 19 0 26 -5 26 -20 0
-16 7 -20 35 -20 24 0 35 -5 35 -15 0 -9 10 -15 23 -16 20 -1 19 -2 -5 -11
-16 -5 -28 -14 -28 -19 0 -5 -20 -9 -45 -9 -33 0 -45 -4 -45 -15 0 -11 -11
-15 -39 -15 -49 0 -71 -8 -71 -26 0 -8 -10 -14 -25 -14 -23 0 -75 -41 -75 -60
0 -6 -5 -10 -11 -10 -20 0 -59 -50 -59 -76 0 -15 -6 -24 -15 -24 -9 0 -18 -8
-22 -17 -3 -10 -12 -25 -19 -33 -7 -9 -14 -32 -16 -52 -1 -26 -7 -38 -20 -41
-16 -5 -18 -19 -18 -152 0 -138 1 -147 20 -152 15 -4 20 -14 20 -39 0 -24 5
-34 15 -34 8 0 15 -9 15 -20 0 -13 7 -20 20 -20 16 0 20 -7 20 -35 0 -24 5
-35 15 -35 8 0 15 -7 15 -15 0 -8 9 -15 20 -15 13 0 20 -7 20 -20 0 -11 7 -20
15 -20 8 0 15 -7 15 -15 0 -10 11 -15 35 -15 28 0 35 -4 35 -20 0 -14 7 -20
21 -20 11 0 27 -7 35 -15 22 -22 216 -22 234 0 7 8 21 15 32 15 11 0 22 9 25
20 3 11 12 20 19 20 9 0 14 12 14 34 0 21 6 36 15 40 21 8 21 119 0 136 -8 7
-15 17 -15 22 0 23 -54 78 -76 78 -15 0 -24 6 -24 15 0 8 -9 15 -20 15 -13 0
-20 7 -20 20 0 11 -7 20 -15 20 -8 0 -15 7 -15 15 0 8 -6 15 -14 15 -7 0 -16
10 -20 23 -19 73 16 117 95 117 37 0 49 -4 49 -15 0 -10 11 -15 35 -15 23 0
35 -5 35 -14 0 -8 7 -17 16 -20 23 -9 24 -8 24 14 0 11 -7 20 -15 20 -8 0 -15
9 -15 20 0 15 -7 20 -29 20 -18 0 -34 8 -43 21 -11 18 -27 22 -86 27 l-72 5
-45 -45 c-42 -43 -45 -49 -45 -99 0 -42 6 -63 27 -94 30 -45 99 -112 123 -120
32 -12 65 -68 64 -110 -2 -87 -62 -125 -164 -103 -126 28 -243 152 -294 312
-20 63 -20 113 0 179 39 131 106 221 214 288 33 21 156 59 190 59 72 0 257
-66 340 -121 14 -9 57 -36 95 -60 39 -24 72 -46 75 -50 19 -22 263 -144 310
-154 19 -4 41 -12 49 -19 19 -15 382 -15 402 0 8 6 36 19 63 29 66 24 131 85
164 154 26 54 27 62 27 221 0 100 -5 179 -12 200 -16 47 -44 219 -50 305 -6
88 16 160 73 235 44 57 124 134 151 144 12 5 14 9 5 18 -9 9 -19 7 -42 -10
-16 -12 -33 -22 -38 -22 -30 0 -202 -194 -202 -229 0 -9 -7 -25 -15 -35 -11
-15 -15 -48 -15 -128 l0 -108 -27 -12 c-16 -7 -35 -17 -43 -24 -24 -20 -158
-84 -175 -84 -9 0 -26 -6 -38 -12 -26 -15 -95 -34 -187 -53 -36 -7 -76 -17
-90 -23 -76 -30 -405 -38 -525 -12 -67 15 -191 59 -225 80 -8 6 -25 14 -37 20
-70 30 -197 147 -230 212 -52 103 -53 110 -53 265 0 99 5 166 14 199 8 27 17
69 21 94 4 25 11 50 15 55 4 6 10 24 14 40 10 43 71 172 158 332 28 52 36 80
37 121 1 37 -3 52 -12 52 -8 0 -17 -3 -20 -7z m1396 -1435 c4 -28 11 -56 17
-62 16 -16 13 -241 -4 -255 -8 -7 -17 -27 -20 -46 -4 -21 -13 -35 -21 -35 -8
0 -15 -9 -15 -20 0 -17 -7 -20 -50 -20 -38 0 -50 -4 -50 -15 0 -13 -24 -15
-159 -15 -132 0 -160 3 -165 15 -4 10 -20 15 -50 15 -35 0 -48 5 -56 20 -7 13
-21 20 -40 20 -17 0 -30 4 -30 10 0 5 -12 13 -27 16 -16 4 -34 16 -41 26 -7
10 -24 18 -38 18 -13 0 -24 5 -24 10 0 6 -11 15 -25 20 -14 5 -25 14 -25 19 0
5 -13 12 -30 16 -17 4 -30 13 -30 21 0 9 -11 14 -34 14 -25 0 -35 5 -39 20 -3
11 -12 20 -20 20 -8 0 -17 7 -21 15 -7 19 3 19 28 0 15 -11 50 -15 140 -15 70
0 115 4 108 9 -22 13 11 21 91 21 77 0 147 15 147 30 0 6 20 10 45 10 33 0 45
4 45 15 0 12 13 15 55 15 43 0 59 4 72 20 10 11 25 20 34 20 9 0 22 7 29 15 7
8 20 15 30 15 10 0 20 9 23 20 4 16 14 20 51 20 32 0 48 5 52 15 4 8 14 15 24
15 13 0 19 -11 23 -52z"/>
<path d="M3004 2162 c-6 -4 -14 -19 -18 -34 -3 -16 -11 -28 -16 -28 -6 0 -10
-16 -10 -35 0 -24 -6 -37 -19 -45 -12 -6 -22 -26 -26 -52 -4 -24 -12 -46 -17
-49 -12 -8 -29 -220 -21 -263 3 -17 9 -35 14 -41 4 -5 10 -27 14 -47 4 -21 13
-42 21 -49 8 -6 14 -17 14 -23 0 -16 32 -56 112 -141 77 -82 171 -135 283
-160 88 -19 113 -19 200 1 250 57 424 202 469 392 16 67 16 78 2 148 -9 42
-28 99 -44 128 -31 59 -151 186 -175 186 -10 0 -17 4 -17 10 0 5 -11 12 -25
16 -13 3 -29 12 -36 20 -6 8 -25 14 -41 14 -16 0 -31 6 -34 14 -4 10 -23 14
-65 13 -55 0 -58 -2 -44 -17 9 -9 15 -36 15 -61 0 -24 3 -55 7 -68 l6 -24 17
24 18 23 33 -27 c19 -15 39 -31 45 -36 6 -5 38 -21 70 -36 82 -37 96 -43 119
-49 37 -11 55 -60 55 -154 0 -71 -4 -95 -22 -129 -20 -38 -27 -43 -58 -43 -19
0 -51 5 -70 11 -19 5 -75 12 -123 14 -152 7 -292 71 -414 190 -67 66 -88 95
-121 165 -22 47 -43 108 -47 135 -15 117 -20 128 -51 107z m19 -302 c9 -13 17
-35 17 -47 0 -14 6 -23 15 -23 10 0 15 -11 15 -35 0 -24 5 -35 15 -35 8 0 15
-7 15 -16 0 -9 9 -18 20 -21 11 -3 20 -12 20 -19 0 -8 6 -14 14 -14 7 0 16 -9
19 -20 3 -11 12 -20 21 -20 9 0 16 -7 16 -15 0 -8 7 -15 16 -15 9 0 18 -9 21
-20 3 -11 13 -20 23 -20 10 0 23 -7 30 -15 7 -8 27 -15 46 -15 24 0 34 -5 39
-20 5 -17 15 -20 66 -20 44 0 61 -4 65 -15 4 -11 21 -15 59 -15 36 0 55 -4 58
-14 3 -8 19 -17 36 -21 44 -9 41 -35 -4 -35 -28 0 -35 -4 -35 -20 0 -18 -7
-20 -70 -20 -51 0 -69 -3 -67 -12 4 -21 -104 -23 -115 -4 -7 12 -25 16 -72 16
-55 0 -64 3 -69 20 -4 15 -14 20 -36 20 -21 0 -31 5 -31 15 0 8 -7 15 -15 15
-8 0 -15 7 -15 16 0 9 -9 18 -20 21 -11 3 -20 12 -20 19 0 8 -7 14 -15 14 -8
0 -15 7 -15 16 0 9 -9 18 -20 21 -13 4 -20 14 -20 29 0 14 -7 27 -15 30 -8 4
-15 19 -15 35 0 15 -7 32 -16 37 -11 6 -18 27 -22 61 -3 34 -9 51 -18 51 -10
0 -14 15 -14 55 0 40 4 55 14 55 9 0 15 20 19 66 7 93 30 106 37 21 3 -36 12
-72 23 -87z"/>
</g>
</svg>
